<svg width="30" height="30" viewBox="0 0 30 30" fill="none" xmlns="http://www.w3.org/2000/svg">
<rect width="30" height="30" rx="4" fill="#8378FF"/>
<path d="M9.16659 21.6667H20.8333V23.3333H9.16659V21.6667ZM14.9999 20C13.2318 20 11.5361 19.2976 10.2859 18.0474C9.03563 16.7971 8.33325 15.1014 8.33325 13.3333C8.33325 11.5652 9.03563 9.86952 10.2859 8.61928C11.5361 7.36904 13.2318 6.66666 14.9999 6.66666C16.768 6.66666 18.4637 7.36904 19.714 8.61928C20.9642 9.86952 21.6666 11.5652 21.6666 13.3333C21.6666 15.1014 20.9642 16.7971 19.714 18.0474C18.4637 19.2976 16.768 20 14.9999 20ZM14.9999 18.3333C16.326 18.3333 17.5978 17.8065 18.5355 16.8689C19.4731 15.9312 19.9999 14.6594 19.9999 13.3333C19.9999 12.0072 19.4731 10.7355 18.5355 9.79779C17.5978 8.86011 16.326 8.33332 14.9999 8.33332C13.6738 8.33332 12.4021 8.86011 11.4644 9.79779C10.5267 10.7355 9.99992 12.0072 9.99992 13.3333C9.99992 14.6594 10.5267 15.9312 11.4644 16.8689C12.4021 17.8065 13.6738 18.3333 14.9999 18.3333Z" fill="white"/>
</svg>
