<svg width="24" height="24" viewBox="0 0 24 24" fill="none" xmlns="http://www.w3.org/2000/svg">
<path d="M7 10.0025H20C20.2652 10.0025 20.5196 10.1079 20.7071 10.2954C20.8946 10.483 21 10.7373 21 11.0025V21.0025C21 21.2677 20.8946 21.5221 20.7071 21.7096C20.5196 21.8972 20.2652 22.0025 20 22.0025H4C3.73478 22.0025 3.48043 21.8972 3.29289 21.7096C3.10536 21.5221 3 21.2677 3 21.0025V11.0025C3 10.7373 3.10536 10.483 3.29289 10.2954C3.48043 10.1079 3.73478 10.0025 4 10.0025H5V9.00253C4.99943 7.42524 5.53158 5.89397 6.51019 4.65697C7.4888 3.41996 8.8565 2.54971 10.3916 2.18729C11.9267 1.82488 13.5392 1.99153 14.9677 2.66024C16.3963 3.32896 17.5571 4.46053 18.262 5.87153L16.473 6.76553C15.9695 5.75755 15.1403 4.94918 14.1198 4.47148C13.0994 3.99378 11.9475 3.87476 10.8509 4.13371C9.7543 4.39266 8.77733 5.01441 8.07836 5.89814C7.37939 6.78188 6.9994 7.87579 7 9.00253V10.0025ZM5 12.0025V20.0025H19V12.0025H5ZM10 15.0025H14V17.0025H10V15.0025Z" fill="#DDA550"/>
</svg>
