<svg width="24" height="24" viewBox="0 0 24 24" fill="none" xmlns="http://www.w3.org/2000/svg">
<path d="M5.67077 4.25718C9.59877 1.03818 15.4038 1.26218 19.0708 4.92918C22.9758 8.83418 22.9758 15.1662 19.0708 19.0712C15.1658 22.9762 8.83377 22.9762 4.92877 19.0712C3.7304 17.8744 2.85585 16.3928 2.38723 14.7653C1.91861 13.1378 1.87131 11.4179 2.24977 9.76718L2.32677 9.45418L4.26077 9.96418C3.78131 11.7864 3.96046 13.7195 4.76665 15.4226C5.57283 17.1257 6.95431 18.4896 8.6676 19.2739C10.3809 20.0582 12.3161 20.2125 14.132 19.7098C15.948 19.207 17.5282 18.0794 18.5942 16.5256C19.6602 14.9718 20.1435 13.0917 19.959 11.2164C19.7745 9.34121 18.934 7.5913 17.5856 6.27508C16.2373 4.95887 14.4676 4.16084 12.5884 4.02165C10.7093 3.88245 8.84136 4.41101 7.31377 5.51418L7.09277 5.68018L8.10977 6.69718L3.51377 7.75718L4.57377 3.16118L5.66977 4.25718H5.67077ZM12.9998 6.00018V8.00018H15.4998V10.0002H9.99977C9.87482 9.99995 9.75432 10.0465 9.66199 10.1307C9.56965 10.2149 9.51218 10.3306 9.50089 10.455C9.4896 10.5794 9.52531 10.7036 9.60099 10.803C9.67667 10.9024 9.78682 10.9699 9.90977 10.9922L9.99977 11.0002H13.9998C14.6628 11.0002 15.2987 11.2636 15.7675 11.7324C16.2364 12.2013 16.4998 12.8371 16.4998 13.5002C16.4998 14.1632 16.2364 14.7991 15.7675 15.2679C15.2987 15.7368 14.6628 16.0002 13.9998 16.0002H12.9998V18.0002H10.9998V16.0002H8.49977V14.0002H13.9998C14.1247 14.0004 14.2452 13.9539 14.3376 13.8697C14.4299 13.7855 14.4874 13.6698 14.4986 13.5454C14.5099 13.4209 14.4742 13.2968 14.3986 13.1973C14.3229 13.0979 14.2127 13.0304 14.0898 13.0082L13.9998 13.0002H9.99977C9.33673 13.0002 8.70084 12.7368 8.232 12.2679C7.76316 11.7991 7.49977 11.1632 7.49977 10.5002C7.49977 9.83714 7.76316 9.20125 8.232 8.73241C8.70084 8.26357 9.33673 8.00018 9.99977 8.00018H10.9998V6.00018H12.9998Z" fill="#3371E5"/>
</svg>
