<svg width="20" height="20" viewBox="0 0 20 20" fill="none" xmlns="http://www.w3.org/2000/svg">
<path d="M1.66699 9.99993C1.66699 9.2791 1.75866 8.58076 1.93033 7.91326C2.39071 7.93746 2.84883 7.83389 3.25403 7.61399C3.65922 7.39408 3.99573 7.06642 4.22633 6.66722C4.45694 6.26801 4.57266 5.81282 4.56072 5.35195C4.54878 4.89108 4.40963 4.44249 4.15866 4.05576C5.16611 3.06457 6.40932 2.34617 7.77116 1.96826C7.98032 2.37949 8.29919 2.72482 8.69248 2.96602C9.08577 3.20722 9.53813 3.33489 9.99949 3.33489C10.4609 3.33489 10.9132 3.20722 11.3065 2.96602C11.6998 2.72482 12.0187 2.37949 12.2278 1.96826C13.5897 2.34617 14.8329 3.06457 15.8403 4.05576C15.5891 4.44256 15.4497 4.89132 15.4377 5.3524C15.4257 5.81348 15.5414 6.2689 15.7721 6.66827C16.0029 7.06765 16.3396 7.3954 16.7451 7.61527C17.1505 7.83515 17.6089 7.93857 18.0695 7.91409C18.2412 8.58076 18.3328 9.2791 18.3328 9.99993C18.3328 10.7208 18.2412 11.4191 18.0695 12.0866C17.609 12.0622 17.1508 12.1657 16.7455 12.3855C16.3402 12.6054 16.0035 12.933 15.7728 13.3322C15.5421 13.7315 15.4263 14.1867 15.4382 14.6477C15.4501 15.1086 15.5893 15.5573 15.8403 15.9441C14.8329 16.9353 13.5897 17.6537 12.2278 18.0316C12.0187 17.6204 11.6998 17.275 11.3065 17.0338C10.9132 16.7926 10.4609 16.665 9.99949 16.665C9.53813 16.665 9.08577 16.7926 8.69248 17.0338C8.29919 17.275 7.98032 17.6204 7.77116 18.0316C6.40932 17.6537 5.16611 16.9353 4.15866 15.9441C4.40991 15.5573 4.54927 15.1085 4.5613 14.6475C4.57333 14.1864 4.45757 13.731 4.22684 13.3316C3.9961 12.9322 3.65937 12.6045 3.25391 12.3846C2.84846 12.1647 2.39008 12.0613 1.92949 12.0858C1.75866 11.4199 1.66699 10.7216 1.66699 9.99993ZM5.67033 12.4999C6.19532 13.4091 6.34532 14.4549 6.14033 15.4366C6.48033 15.6783 6.84199 15.8874 7.22116 16.0616C7.98505 15.3773 8.97475 14.9992 10.0003 14.9999C11.0503 14.9999 12.032 15.3924 12.7795 16.0616C13.1587 15.8874 13.5203 15.6783 13.8603 15.4366C13.6499 14.4332 13.8172 13.3875 14.3303 12.4999C14.8425 11.6119 15.6645 10.9442 16.6387 10.6249C16.6772 10.2092 16.6772 9.7907 16.6387 9.37493C15.6642 9.05581 14.8419 8.38811 14.3295 7.49993C13.8164 6.61237 13.649 5.56662 13.8595 4.56326C13.5196 4.32153 13.1577 4.11228 12.7787 3.93826C12.015 4.62237 11.0256 5.00044 10.0003 4.99993C8.97475 5.00064 7.98505 4.62256 7.22116 3.93826C6.8421 4.11228 6.48023 4.32154 6.14033 4.56326C6.3508 5.56662 6.18343 6.61237 5.67033 7.49993C5.15813 8.38795 4.33614 9.05563 3.36199 9.37493C3.32345 9.7907 3.32345 10.2092 3.36199 10.6249C4.33645 10.944 5.15877 11.6117 5.67116 12.4999H5.67033ZM10.0003 12.4999C9.33728 12.4999 8.7014 12.2365 8.23256 11.7677C7.76372 11.2989 7.50033 10.663 7.50033 9.99993C7.50033 9.33689 7.76372 8.701 8.23256 8.23216C8.7014 7.76332 9.33728 7.49993 10.0003 7.49993C10.6634 7.49993 11.2993 7.76332 11.7681 8.23216C12.2369 8.701 12.5003 9.33689 12.5003 9.99993C12.5003 10.663 12.2369 11.2989 11.7681 11.7677C11.2993 12.2365 10.6634 12.4999 10.0003 12.4999ZM10.0003 10.8333C10.2213 10.8333 10.4333 10.7455 10.5896 10.5892C10.7459 10.4329 10.8337 10.2209 10.8337 9.99993C10.8337 9.77892 10.7459 9.56695 10.5896 9.41067C10.4333 9.25439 10.2213 9.1666 10.0003 9.1666C9.77931 9.1666 9.56735 9.25439 9.41107 9.41067C9.25479 9.56695 9.16699 9.77892 9.16699 9.99993C9.16699 10.2209 9.25479 10.4329 9.41107 10.5892C9.56735 10.7455 9.77931 10.8333 10.0003 10.8333Z" fill="#4A4A56"/>
</svg>
